<?xml version="1.0" standalone="no"?><!DOCTYPE svg PUBLIC "-//W3C//DTD SVG 1.1//EN" "http://www.w3.org/Graphics/SVG/1.1/DTD/svg11.dtd"><svg t="1685022164034" class="icon" viewBox="0 0 1024 1024" version="1.1" xmlns="http://www.w3.org/2000/svg" p-id="4410" xmlns:xlink="http://www.w3.org/1999/xlink" width="200" height="200"><path d="M777 150.73a446.63 446.63 0 0 0-43.38-28.18c-1.27-0.72-2.54-1.44-3.82-2.15q-6.57-3.66-13.26-7.09a443.52 443.52 0 0 0-52.59-22.89c-3.56-1.28-7.15-2.53-10.76-3.71A447.07 447.07 0 0 0 512 64q-9.09 0-18.08 0.36-20.48 0.81-40.44 3.44C264.17 92.49 112 235.38 73.46 420a446.17 446.17 0 0 0-7.76 52.75Q64 492.14 64 512a446.07 446.07 0 0 0 96.21 277.42q6.21 7.86 12.77 15.44 2.27 2.63 4.58 5.22 8.28 9.28 17.05 18.09 13 13 27 25 4 3.47 8.16 6.8A446.08 446.08 0 0 0 512 960c171.21 0 320-96 395.4-237.2q9.6-17.8 17.49-36.64 3.57-8.46 6.8-17.1a444.34 444.34 0 0 0 15.1-48.63A449 449 0 0 0 960 512c0-148.28-72-279.73-183-361.27z m123.33 486.86q-5.44 16.82-12.33 33.21c-0.51 1.21-1 2.41-1.55 3.61q-2.39 5.51-4.93 10.9-6 12.87-12.91 25.23a407.82 407.82 0 0 1-621.19 112Q235 812 223.5 800.5q-4.29-4.29-8.44-8.7c-1.28-1.35-2.54-2.7-3.8-4.07l-0.84-0.92a405.83 405.83 0 0 1-41.42-53.7l-1-1.62a406.51 406.51 0 0 1-64-219.41V512a413.23 413.23 0 0 1 3.4-53 407.78 407.78 0 0 1 344-350.5q19.86-3 40.1-3.95 10.18-0.55 20.5-0.55a411 411 0 0 1 71.12 6.15l5.75 1a402.68 402.68 0 0 1 63 17.41q4.5 1.65 9 3.4 5 2 9.91 4a406.22 406.22 0 0 1 108.45 67.63q10.93 9.49 21.25 19.82a408.76 408.76 0 0 1 99.83 414.09z" p-id="4411"></path><path d="M777 150.73a446.63 446.63 0 0 0-43.38-28.18q3.46 24.77 4.81 49.93 0.86 15.92 0.85 32a581.42 581.42 0 0 1-46 227.7A584.88 584.88 0 0 1 647.59 519q-4 6.33-8.23 12.54-7.25 10.72-15 21.15A587 587 0 0 1 512.45 667q-15.23 11.85-31.15 22.6-7.11 4.8-14.36 9.37a582.94 582.94 0 0 1-85 44.56 579.24 579.24 0 0 1-167.68 42.93l-3.84 0.38q-18 1.7-36.15 2.31-7 0.23-14.06 0.3 8.37 10.59 17.35 20.66 8.28 9.28 17.05 18.09 13.44-0.85 26.73-2.28 13.1-1.39 26-3.33a621.58 621.58 0 0 0 275.73-113.52q22.56-16.52 43.55-35a628 628 0 0 0 86.56-93.19q12.17-16.09 23.29-33a622.06 622.06 0 0 0 102.78-343.5v-0.77q-0.03-26.69-2.25-52.88z" p-id="4412"></path><path d="M901.33 679.31q-7.49-2.34-14.93-4.9-19.11-6.55-37.84-14.48c-3.46-1.47-6.92-3-10.35-4.5a584.79 584.79 0 0 1-89-49.43 588.4 588.4 0 0 1-72.73-58q-7.05-6.59-13.88-13.41-7.65-7.65-15-15.58a587.18 587.18 0 0 1-56.45-71 585.07 585.07 0 0 1-53.93-99.36 578.58 578.58 0 0 1-41-150.67q-2.83-21.71-4.06-43.73-0.93-16.58-0.93-33.3 0-8.2 0.22-16.37 0.55-20.19 2.45-40.15-20.48 0.81-40.44 3.44-1.71 20.16-2.11 40.66-0.12 6.2-0.12 12.42 0 28.47 2.51 56.3 2 22.45 5.57 44.44a623.07 623.07 0 0 0 165 331q13.93 14.6 28.81 28.27a626 626 0 0 0 121 87.26 618.91 618.91 0 0 0 60.21 29.19q16.82 7.07 34.12 13.17 19.14 6.75 38.84 12.26 9.71-17.84 17.6-36.68-11.89-3.16-23.56-6.85z" p-id="4413"></path><path d="M917.89 631.51q-8.75 3.15-17.56 6.08-30.65 10.21-62.12 17.84t-64 12.75A818.23 818.23 0 0 1 647.1 678q-40.64 0-80.48-3.89-27.3-2.65-54.17-7.14a780.49 780.49 0 0 1-136.13-35.46 738.65 738.65 0 0 1-117.69-54.36q-16.51-9.49-32.4-19.82-17.89-11.61-34.89-24.22-18-13.32-34.83-27.66A635.07 635.07 0 0 1 107.4 459q-17.94-18.9-33.94-39a446.17 446.17 0 0 0-7.76 52.75q18.2 20.34 38.3 39.33a697.93 697.93 0 0 0 77.15 63q17.58 12.42 36.09 23.9c73.94 45.87 158.39 80.22 249.7 99.92q27.66 6 56.13 10.13a860.64 860.64 0 0 0 124 8.93 852.72 852.72 0 0 0 187.33-20.63q23.85-5.37 47-12.06 10-2.88 19.86-6 15.34-4.84 30.36-10.25a444.34 444.34 0 0 0 15.1-48.63q-14.24 5.86-28.83 11.12z" p-id="4414"></path><path d="M663.92 90.42c-3.56-1.28-7.15-2.53-10.76-3.71a654.59 654.59 0 0 0-70 23.44c-243.28 97-415.2 334.76-415.2 612.65q0 4.35 0.05 8.69a667.3 667.3 0 0 0 5 73.37q2.27 2.63 4.58 5.22 8.28 9.28 17.05 18.09 13 13 27 25a615.2 615.2 0 0 1-10.35-65.41 627.46 627.46 0 0 1-3.34-64.93 616.31 616.31 0 0 1 105.72-346.27 619.53 619.53 0 0 1 338.25-247.95 610.85 610.85 0 0 1 64.59-15.3 443.52 443.52 0 0 0-52.59-22.89z" p-id="4415"></path><path d="M329.99 309.63m-60 0a60 60 0 1 0 120 0 60 60 0 1 0-120 0Z" p-id="4416"></path><path d="M736.28 369.63m-60 0a60 60 0 1 0 120 0 60 60 0 1 0-120 0Z" p-id="4417"></path><path d="M516.5 695.7m-60 0a60 60 0 1 0 120 0 60 60 0 1 0-120 0Z" p-id="4418"></path></svg>