<?xml version="1.0" standalone="no"?><!DOCTYPE svg PUBLIC "-//W3C//DTD SVG 1.1//EN" "http://www.w3.org/Graphics/SVG/1.1/DTD/svg11.dtd"><svg t="1685006221555" class="icon" viewBox="0 0 1024 1024" version="1.1" xmlns="http://www.w3.org/2000/svg" p-id="12112" xmlns:xlink="http://www.w3.org/1999/xlink" width="200" height="200"><path d="M917.333333 192A106.666667 106.666667 0 0 0 810.666667 85.333333H213.333333a106.666667 106.666667 0 0 0-106.666666 106.666667v597.333333C106.666667 871.68 173.653333 938.666667 256 938.666667h640c11.946667 0 21.333333-9.386667 21.333333-21.333334s-9.386667-21.333333-21.333333-21.333333H256a106.666667 106.666667 0 0 1 0-213.333333h554.666667a106.666667 106.666667 0 0 0 106.666666-106.666667v-384z m-42.666666 384c0 35.413333-28.586667 64-64 64H256c-10.24 0-20.48 1.28-30.293333 2.986667-3.413333 0.853333-6.826667 2.133333-10.24 3.413333-5.973333 1.706667-11.946667 2.986667-17.493334 5.546667-3.84 1.706667-7.68 4.266667-11.52 6.4-4.693333 2.56-9.813333 4.693333-14.08 7.68-3.84 2.56-6.826667 5.546667-10.24 8.533333-3.84 3.413333-8.106667 6.4-11.946666 9.813333 0 0-0.426667 0.426667-0.853334 0.426667V192C149.333333 156.586667 177.92 128 213.333333 128h597.333334c35.413333 0 64 28.586667 64 64v384z" p-id="12113"></path><path d="M277.333333 768c-11.946667 0-21.333333 9.386667-21.333333 21.333333s9.386667 21.333333 21.333333 21.333334h597.333334c11.946667 0 21.333333-9.386667 21.333333-21.333334s-9.386667-21.333333-21.333333-21.333333h-597.333334zM687.36 361.386667h-42.666667c-1.28 0-2.56 0.426667-3.84 0.853333-4.693333-19.2-13.653333-36.693333-26.026666-51.626667 0.426667-0.426667 0.853333-0.426667 0.853333-0.853333l30.293333-30.293333c8.533333-8.533333 8.533333-21.76 0-30.293334s-21.76-8.533333-30.293333 0l-30.293333 30.293334c-0.853333 0.853333-1.28 2.133333-2.133334 2.986666-13.226667-8.533333-28.586667-14.506667-45.653333-17.066666 0-0.853333 0.426667-1.28 0.426667-2.133334v-42.666666c0-11.946667-9.386667-21.333333-21.333334-21.333334s-21.333333 9.386667-21.333333 21.333334v42.666666c0 0.853333 0.426667 1.28 0.426667 2.133334-19.626667 3.413333-37.973333 10.666667-53.333334 22.186666-0.426667-0.426667-0.853333-1.28-1.28-1.706666l-29.866666-30.72c-8.533333-8.533333-21.76-8.533333-30.293334 0s-8.533333 21.76 0 30.293333l30.293334 30.293333c0.426667 0.426667 1.28 0.853333 1.706666 1.28-9.813333 13.226667-16.64 28.586667-20.48 44.8-1.28 0-2.56-0.426667-3.84-0.426666h-42.666666c-11.946667 0-21.333333 9.386667-21.333334 21.333333s9.386667 21.333333 21.333334 21.333333h42.666666c0.426667 0 0.853333-0.426667 1.28-0.426666 2.133333 20.053333 8.106667 38.4 18.346667 54.613333-1.28 0.853333-2.133333 1.28-3.413333 2.133333l-29.866667 30.293334c-8.533333 8.533333-8.533333 21.76 0 30.293333a20.693333 20.693333 0 0 0 29.866667 0l30.293333-30.293333c0.426667-0.426667 0.426667-0.853333 0.853333-1.28 17.066667 14.08 37.12 23.466667 59.733334 27.306666 0 0.853333-0.426667 1.28-0.426667 2.133334v42.666666c0 11.946667 9.386667 21.333333 21.333333 21.333334s21.333333-9.386667 21.333334-21.333334v-42.666666c0-0.853333-0.426667-1.28-0.426667-2.133334 19.626667-3.413333 37.973333-10.666667 53.333333-22.186666 0.426667 0.426667 0.853333 1.28 1.28 1.706666l30.293334 30.293334a20.693333 20.693333 0 0 0 29.866666 0c8.533333-8.533333 8.533333-21.76 0-30.293334l-30.293333-30.293333c-0.426667-0.426667-1.28-0.853333-1.706667-1.28 12.8-17.92 20.48-38.826667 23.04-61.866667 0.426667 0 0.853333 0.426667 1.28 0.426667h42.666667c11.946667 0 21.333333-9.386667 21.333333-21.333333s-9.386667-20.48-21.333333-20.48z m-170.666667 115.2c-46.933333 0-85.333333-38.4-85.333333-85.333334s38.4-85.333333 85.333333-85.333333 85.333333 38.4 85.333334 85.333333-38.4 85.333333-85.333334 85.333334z" p-id="12114"></path></svg>