<?xml version="1.0" standalone="no"?><!DOCTYPE svg PUBLIC "-//W3C//DTD SVG 1.1//EN" "http://www.w3.org/Graphics/SVG/1.1/DTD/svg11.dtd"><svg t="1685022604151" class="icon" viewBox="0 0 1024 1024" version="1.1" xmlns="http://www.w3.org/2000/svg" p-id="9187" xmlns:xlink="http://www.w3.org/1999/xlink" width="200" height="200"><path d="M959.552 645.344l0.352 282.528a64 64 0 0 1-64.032 64.064L128 991.36a64 64 0 0 1-64-64V96a64 64 0 0 1 64-64h767.36a64 64 0 0 1 64 64v217.696A32 32 0 1 1 896 320h-0.448l-0.16-224H128v831.36L896 928l-0.224-288H896a32 32 0 1 1 63.552 5.344z m-25.728-211.392a32 32 0 0 1 0 45.248l-248.896 248.896-45.248-45.248 248.896-248.896a32 32 0 0 1 45.248 0zM560.8 806.976l45.248-90.528 45.28 45.248-90.528 45.28zM223.84 351.84h383.776a32 32 0 1 1 0 63.968H223.872a32 32 0 1 1 0-63.968z m0 191.872h255.84a32 32 0 1 1 0 63.968H223.872a32 32 0 1 1 0-63.968z"  p-id="9188"></path></svg>